<svg width="10" height="17" viewBox="0 0 10 17" fill="none" xmlns="http://www.w3.org/2000/svg">
<path d="M0.293787 0.293787C0.200661 0.386679 0.126776 0.49703 0.0763626 0.61852C0.0259497 0.74001 0 0.870253 0 1.00179C0 1.13332 0.0259497 1.26356 0.0763626 1.38506C0.126776 1.50655 0.200661 1.6169 0.293787 1.70979L6.58779 8.00179L0.293787 14.2938C0.200811 14.3868 0.127058 14.4971 0.0767403 14.6186C0.0264221 14.7401 0.000524521 14.8703 0.000524521 15.0018C0.000524521 15.1333 0.0264221 15.2635 0.0767403 15.385C0.127058 15.5064 0.200811 15.6168 0.293787 15.7098C0.386763 15.8028 0.497141 15.8765 0.61862 15.9268C0.740099 15.9772 0.870299 16.003 1.00179 16.003C1.13327 16.003 1.26348 15.9772 1.38495 15.9268C1.50643 15.8765 1.61681 15.8028 1.70979 15.7098L8.70979 8.70979C8.80291 8.6169 8.8768 8.50654 8.92721 8.38505C8.97762 8.26356 9.00357 8.13332 9.00357 8.00179C9.00357 7.87025 8.97762 7.74001 8.92721 7.61852C8.8768 7.49703 8.80291 7.38668 8.70979 7.29379L1.70979 0.293787C1.6169 0.200661 1.50654 0.126775 1.38505 0.0763621C1.26356 0.0259492 1.13332 0 1.00179 0C0.870253 0 0.740011 0.0259492 0.618521 0.0763621C0.49703 0.126775 0.386678 0.200661 0.293787 0.293787Z" fill="#E12179"/>
</svg>
